<svg xmlns="http://www.w3.org/2000/svg" viewBox="0 0 237.72 103.55"><defs><style>.cls-1{fill:#fff;}</style></defs><title>Antibiotic_illustration</title><g id="Layer_2" data-name="Layer 2"><g id="Layer_1-2" data-name="Layer 1"><circle class="cls-1" cx="67.91" cy="13.32" r="11.76"/><ellipse class="cls-1" cx="118.7" cy="13.79" rx="11.76" ry="15.9" transform="translate(28.75 92.45) rotate(-47.79)"/><circle class="cls-1" cx="94.66" cy="17.75" r="11.76"/><circle class="cls-1" cx="110.22" cy="37.81" r="11.76"/><circle class="cls-1" cx="135.2" cy="37.64" r="11.76"/><ellipse class="cls-1" cx="82.99" cy="41.18" rx="12.49" ry="15.86" transform="translate(-3.27 74.99) rotate(-47.79)"/><circle class="cls-1" cx="104.66" cy="62.56" r="11.76"/><circle class="cls-1" cx="131.72" cy="62.28" r="11.76"/><circle class="cls-1" cx="156.7" cy="62.1" r="11.76"/><ellipse class="cls-1" cx="123.76" cy="87.1" rx="12.49" ry="15.86" transform="translate(-23.9 120.26) rotate(-47.79)"/><ellipse class="cls-1" cx="228.13" cy="63.96" rx="12.83" ry="9.49" transform="translate(128.37 278.87) rotate(-80.76)"/><circle class="cls-1" cx="214.9" cy="49.43" r="9.49"/><circle class="cls-1" cx="208.15" cy="68.77" r="9.49"/><circle class="cls-1" cx="219.23" cy="85.6" r="9.49"/><ellipse class="cls-1" cx="193.92" cy="51.82" rx="12.79" ry="10.08" transform="translate(111.63 234.9) rotate(-80.76)"/><circle class="cls-1" cx="9.49" cy="47.14" r="9.49"/><circle class="cls-1" cx="201.03" cy="94.06" r="9.49"/><circle class="cls-1" cx="25.89" cy="61.14" r="9.49"/><ellipse class="cls-1" cx="46.92" cy="56.63" rx="12.79" ry="10.08" transform="translate(-16.51 93.84) rotate(-80.76)"/><circle class="cls-1" cx="31.04" cy="37.54" r="11.76"/></g></g></svg>