<svg xmlns="http://www.w3.org/2000/svg" viewBox="0 0 121.57 85.42"><defs><style>.cls-1,.cls-2{fill:none;stroke:#fff;stroke-miterlimit:10;}.cls-1{stroke-width:1.57px;}.cls-2{stroke-width:1.31px;}</style></defs><title>Brain</title><g id="Layer_2" data-name="Layer 2"><g id="Layer_1-2" data-name="Layer 1"><path class="cls-1" d="M19.13,68.12l-6.29,1.31L7.07,66.81V62.88L4.72,61.31,3.14,57.38l.27-1.57L.79,51.88V46.64l.78-5.24.26-5,1.84-4.19L5.5,29.87l1.31-2.62,2.1-1.84,2.62-1.31L12.84,21,16,17l4.46-3.14,2.88-1.05L27.51,10l2.1-1.31L32,8.38l1.83,1,1.05-2.36.78-1,4.2-1.58,1.31.79,1.31-1.31,3.93-1.31L50,2.36h2.89l1,.78,1.31-1.31,1.84-.78L59.74.79h2.88l1.83.26h2.89l3.4.78L77,2.62l5.5.79,1.84,1.31L86.72,6,93,8.38,94.32,11l4.46,1.84,2.09,2.36,1.58,1.31,1,1.83L106.11,21l2.62,2.36,2.1,2.09,1.57,3.93,1.84,2.1,1.57,3.15,1.31,2.09L119,39V41.4l1,3.67.79,2.88v3.67l-1.58,6-1.83,6.29-2.62,1.83L110,67.34l.53,3.4.78,1.84L110,76l-2.35,3.41-2.1,2.09-3.14,1.31L98,84.37l-5.24.26-4.45-.79-3.93-1.57-4.2-1.83-1.83-2.1L76,77.55l-1.83,1.84-4.72.52-3.14-.52s-2.1-.26-2.62-.26-3.41.26-3.41.26l-3.14,2.88-6,.79-4.45-.79L40.09,80.7l-3.15-1-3.4-2.1-1.31-2.88V71l-2.36-2.88-3.15.53-5-.27Z"/><polyline class="cls-2" points="33.27 62.88 35.27 56.39 34.66 56.07 27.51 52.4"/><polyline class="cls-2" points="39.96 55.15 43.1 52.01 37.34 41.27 35.5 38.65"/><polyline class="cls-2" points="44.93 51.75 53.06 50.96 54.37 47.55 56.73 45.2 59.87 44.15 62.49 41.27 65.63 39.69 67.99 39.17 72.71 38.65 75.33 40.22 76.38 42.58"/><line class="cls-2" x1="74.54" y1="37.34" x2="79.78" y2="32.1"/><line class="cls-2" x1="62.49" y1="41.27" x2="60.66" y2="33.93"/><line class="cls-2" x1="56.72" y1="45.2" x2="52.01" y2="39.43"/><polyline class="cls-2" points="44.93 40.48 43.1 33.93 39.96 31.31 34.98 30.79 30.26 32.1 28.21 37.05 27.12 39.69 27.9 42.31 27.64 44.15 20.57 47.03"/><polyline class="cls-2" points="19.52 31.05 20.83 34.19 28.17 37.07"/><polyline class="cls-2" points="53.84 30.79 51.22 25.28 50.7 20.83 53.06 14.02 48.87 11.13"/><polyline class="cls-2" points="58.03 19 61.97 20.57 64.32 25.02 65.11 31.31"/><polyline class="cls-2" points="64.06 4.58 65.37 8.25 65.37 12.18 63.8 17.42 61.97 20.57"/><polyline class="cls-2" points="73.23 16.11 73.49 21.09 74.54 24.76 78.47 21.09 81.88 21.35 85.55 22.66 87.12 26.07 88.17 30.52 93.41 24.5"/><polyline class="cls-2" points="78.73 12.71 83.97 14.8 87.38 17.69 87.38 19.52 89.48 16.9 92.88 16.38 96.03 17.16 99.17 20.83 100.22 23.97 102.58 25.81 104.67 26.59 109.13 28.69 110.44 30.79 111.48 34.45 111.22 37.6 113.06 40.22 113.84 42.58 112.8 45.98 109.65 46.24 105.98 44.67 104.15 41.27 102.31 43.36 100.48 46.77 99.17 50.44 97.07 54.1 94.19 56.2"/><polyline class="cls-2" points="101 36.81 97.6 36.29 94.19 37.34 92.62 42.05 90.52 45.2 86.86 49.39 83.97 51.48 79.26 52.8 74.02 54.89 68.78 56.46 64.32 58.56 60.39 61.44 55.68 61.97 53.06 62.23 51.75 64.85 48.87 66.42 45.16 66.56 41.79 66.68"/><line class="cls-2" x1="43.1" y1="75.07" x2="45.2" y2="66.68"/><polyline class="cls-2" points="56.73 74.02 60.66 70.09 63.8 70.09 67.99 69.83 70.61 67.2 73.23 64.32 75.33 64.85 78.21 64.58 81.09 63.27 84.24 61.44 87.64 61.18 91.57 61.18 94.19 62.23 97.86 60.92 101 58.82 102.31 57.51"/><line class="cls-2" x1="106.77" y1="64.85" x2="101" y2="58.82"/><line class="cls-2" x1="108.34" y1="55.15" x2="108.18" y2="46.59"/><polyline class="cls-2" points="65.89 77.16 70.61 74.02 75.07 73.23 79.52 71.92 83.19 70.87 84.24 68.78 87.64 69.83 92.1 69.04 96.55 68.78 103.1 67.99 106.51 67.47"/><polyline class="cls-2" points="18.73 63.01 19.78 59.08 20.83 56.73 18.73 53.06 16.64 50.44"/><polyline class="cls-2" points="14.54 62.75 11.66 61.18 10.09 58.3 10.09 54.63 10.87 52.27"/><polyline class="cls-2" points="8.52 51.75 5.11 50.17 4.32 48.08 4.06 44.15 5.89 42.84 8.52 40.48 11.4 39.17 12.97 37.6 13.49 33.41 13.49 28.43 16.38 26.59 18.47 23.97 20.57 20.83 23.45 19 27.38 17.69 30.52 16.11 33.41 15.59 36.03 15.07 38.12 13.76 41 14.02 42.05 15.85 41.53 18.21 41 21.62 40.74 25.55 40.74 27.64 40.74 30.26 39.96 31.31"/><polyline class="cls-2" points="29.74 24.5 30.52 28.43 31.52 31.62"/><line class="cls-2" x1="39.17" y1="12.97" x2="38.65" y2="9.04"/><line class="cls-2" x1="42.05" y1="15.85" x2="44.67" y2="14.28"/><polyline class="cls-2" points="51.75 5.11 51.48 7.47 52.27 9.04 52.8 10.35 53.84 11.4 53.06 14.02"/><polyline class="cls-2" points="58.3 6.68 54.89 8.78 53.84 11.4"/><polyline class="cls-2" points="67.99 49.13 66.42 51.48 65.63 53.58 65.89 55.41 65.89 56.46 66.13 57.47"/><polyline class="cls-2" points="52.01 58.3 52.53 60.13 53.84 61.18"/><polyline class="cls-2" points="67.49 57.77 67.99 60.13 68.52 61.18"/><polyline class="cls-2" points="76.64 52.53 77.42 49.91 76.26 54.45"/><line class="cls-2" x1="94.45" y1="36.29" x2="95.76" y2="28.17"/><polyline class="cls-2" points="114.11 50.17 115.42 55.41 114.11 60.13"/><polyline class="cls-2" points="116.72 42.58 116.99 46.24 118.03 47.82 118.82 49.13 118.82 51.48 117.77 54.1"/><polyline class="cls-2" points="65.83 11.44 70.61 8.78 73.49 8.25 77.16 8.52 80.57 9.82 82.4 10.87 84.5 9.3 87.64 9.04 90.79 11.13 93.67 12.18 96.29 14.28 98.38 16.11 99.96 17.95"/><polyline class="cls-2" points="60.13 9.56 61.97 9.56 63.27 10.09 65.37 12.18"/><polyline class="cls-2" points="44.41 21.09 46.77 21.88 48.34 23.19 51.22 25.28"/><polyline class="cls-2" points="34.45 21.62 36.29 22.14 37.6 22.66 40.38 24.69"/><polyline class="cls-2" points="14.02 65.63 15.85 64.85 18.47 64.06 20.83 64.58 23.45 65.89 26.07 66.16 28.17 65.89"/></g></g></svg>