<svg xmlns="http://www.w3.org/2000/svg" viewBox="0 0 101.63 28.81"><defs><style>.cls-1{font-size:19.78px;stroke-width:0.75px;font-family:Helvetica-Bold, Helvetica;font-weight:700;letter-spacing:-0.02em;}.cls-1,.cls-3{fill:#ed1b30;}.cls-1,.cls-3,.cls-4{stroke:#231f20;stroke-miterlimit:10;}.cls-2{letter-spacing:-0.1em;}.cls-3,.cls-4{stroke-width:0.32px;}.cls-4{fill:none;}</style></defs><title>donate_button</title><g id="Layer_2" data-name="Layer 2"><g id="Layer_1-2" data-name="Layer 1"><text class="cls-1" transform="translate(21.03 18.92) scale(1.01 1)">DON<tspan class="cls-2" x="42.58" y="0">A</tspan><tspan x="54.95" y="0">TE</tspan></text><polygon class="cls-3" points="1.66 7.02 0.54 8.35 0.16 9.51 0.21 10.84 0.48 12.01 0.75 12.64 0.48 13.54 0.48 14.44 0.86 15.35 1.45 16.83 2.15 18.21 2.79 19.16 3.43 19.96 4.29 20.65 5.09 21.34 5.95 21.87 6.81 22.24 7.88 22.34 8.9 22.13 9.71 21.81 10.29 21.34 10.94 20.44 11.42 19.53 12.12 18.63 12.71 17.94 13.14 17.36 13.46 16.3 13.57 15.66 13.4 14.71 13.35 13.91 13.78 13.38 14.21 12.48 14.48 11.58 14.53 10.95 14.96 10.68 15.82 10.68 16.94 11 17.27 10.57 17.11 10.15 15.98 9.73 14.96 9.67 14.53 9.83 14.05 9.88 13.73 9.62 13.73 9.25 13.73 8.88 14.96 8.4 16.41 8.29 17.32 8.24 18.34 8.4 19.14 8.45 19.79 8.4 20.16 7.92 20.16 7.45 19.84 7.02 19.41 6.76 18.28 6.76 16.57 6.65 15.01 6.76 13.73 6.86 13.03 6.92 12.55 6.76 12.28 6.01 11.8 5.59 11.64 4.95 11.96 4.53 12.55 4.26 13.73 3.95 14.37 3.84 14.59 3.52 14.32 3.2 13.57 3.04 12.28 3.31 11.26 3.68 10.78 4.05 10.19 4.32 9.71 4.32 10.19 3.73 10.62 3.26 10.94 2.89 10.94 2.41 10.51 2.25 9.97 2.46 9.6 2.89 8.9 3.58 8.69 3.89 8.42 4.32 8.26 4.74 7.94 5.06 7.67 4.64 7.29 3.89 7.02 2.89 6.81 2.14 6.38 1.03 5.84 0.34 5.09 0.18 4.77 0.82 4.99 1.61 5.2 2.41 5.36 2.73 4.56 1.93 3.16 1.56 1.98 1.45 1.13 1.4 0.48 1.56 0.27 2.25 0.54 2.78 1.55 2.83 2.31 2.83 2.9 2.89 3.59 3.04 4.02 3.42 4.29 3.68 4.13 4.11 3.59 4.48 2.73 4.85 2.09 5.33 1.55 6.23 1.66 7.02"/><polyline class="cls-4" points="7.08 21.44 5.74 20.91 4.56 20.22 3.75 19.38 2.84 18.16 2.04 16.94 1.88 16.3 1.72 14.18 2.09 13.12 3 11.95 3.97 11.53 5.04 11.47 5.84 11.63 6.38 12.38 6.86 12.96 6.92 13.28"/><polyline class="cls-4" points="7.94 5.06 7.35 5.75 6.33 6.49 5.58 7.34 5.52 8.93 5.52 10.26 5.51 11.46"/><polyline class="cls-4" points="11.26 6.97 10.67 6.6 9.71 6.49 9.01 6.65 8.2 6.97 7.88 7.66 7.67 8.82 7.56 9.83 7.56 10.1 7.29 10.52 6.7 10.73 6.33 11.05 6.13 11.68"/><polyline class="cls-4" points="8.31 8.66 8.79 8.98 8.79 9.41 8.58 10.04 8.1 10.1 7.56 10.1"/><polyline class="cls-4" points="10.62 12.48 10.35 11.63 10.35 10.73 10.88 10.1 11.47 9.51 12.17 9.3 13.3 8.88 13.73 8.88"/><polyline class="cls-4" points="9.71 6.49 9.76 7.18 10.24 7.45 10.83 7.45 11.42 7.45 12.12 7.23 13.03 6.92"/><polyline class="cls-4" points="1.66 7.02 2.63 6.49 3.38 6.07 4.13 5.8 4.61 5.75 5.58 5.59 6 5.86 6 6.69"/><polyline class="cls-4" points="13.35 13.91 12.65 13.33 11.74 12.85"/><polyline class="cls-4" points="13.73 9.62 13.78 10.31 14.05 10.68 14.53 10.95"/></g></g></svg>