<svg xmlns="http://www.w3.org/2000/svg" viewBox="0 0 260 117.45"><defs><style>.cls-1{fill:none;stroke:#fff;stroke-miterlimit:10;stroke-width:3px;}.cls-2{fill:#fff;}</style></defs><title>Inclusive_learning_diagram</title><g id="Layer_2" data-name="Layer 2"><g id="Layer_1-2" data-name="Layer 1"><text></text><text></text><line class="cls-1" x1="183.77" y1="75.94" x2="183.14" y2="48.63"/><line class="cls-1" x1="258.13" y1="76.49" x2="257.49" y2="49.18"/><rect class="cls-2" x="182.35" y="43.85" width="75.87" height="4.81"/><path class="cls-2" d="M256.45,45.63v1.26H184.13V45.63h72.32M260,42.08H180.58v8.36H260V42.08Z"/><circle class="cls-2" cx="221.57" cy="10.19" r="10.19"/><polygon class="cls-2" points="213.8 22.58 211.24 23.55 208.58 25.41 206.55 28.06 205.49 31.42 205.58 36.11 205.75 39.12 238.56 39.29 239.27 34.08 239.01 29.83 237.86 27.18 236.35 25.14 234.41 23.82 232.37 22.75 230.6 22.49 213.8 22.58"/><rect class="cls-2" x="227.44" y="21.75" width="23.38" height="10.96" rx="3.15" ry="3.15" transform="translate(43.55 167.49) rotate(-42.14)"/><rect class="cls-2" x="234.12" y="8.37" width="23.38" height="10.96" rx="3.36" ry="3.36" transform="translate(220.84 258.79) rotate(-87.4)"/><line class="cls-1" x1="93.48" y1="78.77" x2="92.85" y2="51.47"/><line class="cls-1" x1="167.84" y1="79.32" x2="167.2" y2="52.01"/><rect class="cls-2" x="92.06" y="46.69" width="75.87" height="4.81"/><path class="cls-2" d="M166.16,48.46v1.26H93.84V48.46h72.32m3.55-3.55H90.29v8.36h79.42V44.91Z"/><circle class="cls-2" cx="131.28" cy="13.02" r="10.19"/><polygon class="cls-2" points="123.51 25.41 120.95 26.39 118.29 28.24 116.26 30.9 115.2 34.26 115.29 38.95 115.46 41.95 148.27 42.13 148.98 36.91 148.72 32.67 147.57 30.01 146.06 27.98 144.12 26.65 142.08 25.59 140.31 25.33 123.51 25.41"/><rect class="cls-2" x="137.15" y="24.59" width="23.38" height="10.96" rx="3.15" ry="3.15" transform="translate(18.31 107.64) rotate(-42.14)"/><rect class="cls-2" x="143.84" y="11.21" width="23.38" height="10.96" rx="3.36" ry="3.36" transform="translate(131.81 171.3) rotate(-87.4)"/><line class="cls-1" x1="3.19" y1="79.61" x2="2.56" y2="52.3"/><line class="cls-1" x1="77.55" y1="80.16" x2="76.91" y2="52.85"/><rect class="cls-2" x="1.78" y="47.52" width="75.87" height="4.81"/><path class="cls-2" d="M75.87,49.3v1.26H3.55V49.3H75.87m3.55-3.55H0v8.36H79.42V45.75Z"/><circle class="cls-2" cx="40.99" cy="13.86" r="10.19"/><polygon class="cls-2" points="33.22 26.25 30.66 27.22 28 29.08 25.97 31.73 24.91 35.09 25 39.78 25.18 42.79 57.98 42.97 58.69 37.75 58.43 33.5 57.28 30.85 55.77 28.82 53.83 27.49 51.79 26.43 50.02 26.16 33.22 26.25"/><rect class="cls-2" x="46.86" y="25.42" width="23.38" height="10.96" rx="3.15" ry="3.15" transform="translate(-5.6 47.27) rotate(-42.14)"/><rect class="cls-2" x="53.55" y="12.05" width="23.38" height="10.96" rx="3.36" ry="3.36" transform="translate(44.77 81.9) rotate(-87.4)"/></g></g></svg>