<svg xmlns="http://www.w3.org/2000/svg" viewBox="0 0 246 94.8"><defs><style>.cls-1{fill:#fff;}.cls-2{fill:#ed1b30;}.cls-3{opacity:0.41;}</style></defs><title>Medical_Professional_Illustration</title><g id="Layer_2" data-name="Layer 2"><g id="Layer_1-2" data-name="Layer 1"><circle class="cls-1" cx="125.42" cy="22.62" r="22.62"/><polygon class="cls-1" points="104.45 55.69 98.76 57.85 92.87 61.98 88.36 67.86 86 75.33 86.2 85.73 86.59 92.41 159.43 92.8 161 81.22 160.41 71.79 157.86 65.9 154.52 61.39 150.2 58.44 145.69 56.09 141.76 55.5 104.45 55.69"/><rect class="cls-2" x="130.23" y="59.77" width="9.47" height="30"/><rect class="cls-2" x="130.39" y="60.57" width="9.47" height="30" transform="translate(59.55 210.7) rotate(-90)"/><g class="cls-3"><circle class="cls-1" cx="39.42" cy="22.62" r="22.62"/><polygon class="cls-1" points="18.45 55.69 12.76 57.85 6.87 61.98 2.36 67.86 0 75.33 0.2 85.73 0.59 92.41 73.43 92.8 75 81.22 74.41 71.79 71.86 65.9 68.52 61.39 64.2 58.44 59.69 56.09 55.76 55.5 18.45 55.69"/><rect class="cls-2" x="44.23" y="59.77" width="9.47" height="30"/><rect class="cls-2" x="44.39" y="60.57" width="9.47" height="30" transform="translate(-26.45 124.7) rotate(-90)"/></g><g class="cls-3"><circle class="cls-1" cx="210.42" cy="24.62" r="22.62"/><polygon class="cls-1" points="189.46 57.69 183.76 59.85 177.87 63.98 173.36 69.86 171 77.33 171.2 87.73 171.59 94.41 244.43 94.8 246 83.22 245.41 73.79 242.86 67.9 239.52 63.39 235.2 60.44 230.69 58.09 226.76 57.5 189.46 57.69"/><rect class="cls-2" x="215.23" y="61.77" width="9.47" height="30"/><rect class="cls-2" x="215.39" y="62.57" width="9.47" height="30" transform="translate(142.55 297.7) rotate(-90)"/></g></g></g></svg>