<svg xmlns="http://www.w3.org/2000/svg" viewBox="0 0 668 598.07"><g id="Layer_2" data-name="Layer 2"><g id="Layer_1-2" data-name="Layer 1"><polygon points="88 436.07 241 247.07 393 260.07 433 304.07 460 321.07 465 350.07 489 374.07 524 392.07 559 415.07 576 445.07 582 468.07 604 502.07 631 534.07 657 578.07 668 598.07 0 598.07 88 436.07"/><ellipse cx="531.86" cy="214.25" rx="25.2" ry="32.57" transform="translate(19.35 471.37) rotate(-48.58)" style="stroke:#231f20;stroke-linecap:round;stroke-miterlimit:10;stroke-width:1.1737085504531992px"/><ellipse cx="436.57" cy="28.9" rx="36.77" ry="27.32" transform="matrix(0.92, -0.38, 0.38, 0.92, 22.18, 169.31)"/><polygon points="256 73.07 305 31.07 382 13.07 399 19.07 406 65.07 403.11 65.42 399.86 65.82 308 77.07 256 73.07"/><polygon points="403 69.07 385 117.07 453 158.07 451 178.07 361 137.07 359 129.07 378.7 69.29 403 69.07"/><polygon points="256 79.07 277 173.07 256 240.07 287 243.07 310 196.07 311 168.07 289 94.07 330 174.07 335 225.07 348 250.07 373 253.07 361 170.07 309 82.07 256 79.07"/><polygon points="344 75.07 322.62 102.37 331.95 121.05 374.73 70.14 344 75.07"/><polygon points="457.5 163.57 454.5 179.57 507.63 224.64 502.97 200.13 457.5 163.57"/><polygon points="565.5 218.57 582.5 215.57 667.5 278.57 602.5 282.57 554.5 245.57 565.5 218.57"/><polygon points="604.5 286.57 657.5 284.57 655.5 324.57 599.5 386.57 609.5 431.57 591.15 478.01 579.61 450.61 573.5 374.57 596.5 325.57 555.5 314.57 554.5 359.57 543.5 398.57 515.44 384.27 533.5 367.57 535.5 296.57 550.5 288.57 604.5 286.57"/><polygon points="461.5 314.57 466.5 326.57 525.5 296.57 567.42 260.46 552.5 250.57 518.5 283.57 461.5 314.57"/></g></g></svg>