<?xml version="1.0" encoding="utf-8"?>
<!-- Generator: Adobe Illustrator 24.2.3, SVG Export Plug-In . SVG Version: 6.00 Build 0)  -->
<svg version="1.1" id="Layer_1" xmlns="http://www.w3.org/2000/svg" xmlns:xlink="http://www.w3.org/1999/xlink" x="0px" y="0px"
	 viewBox="0 0 508.6 504.3" style="enable-background:new 0 0 508.6 504.3;" xml:space="preserve">
<style type="text/css">
	.st0{stroke:#E6E7E8;stroke-width:0.3415;stroke-linecap:round;stroke-miterlimit:10;}
	.st1{fill:none;stroke:#000000;stroke-width:3;stroke-linecap:round;stroke-miterlimit:10;}
</style>
<g id="Layer_2_1_">
	<g id="Layer_1-2">
		<circle class="st0" cx="93.3" cy="69.9" r="20"/>
		<circle class="st0" cx="488.4" cy="323.9" r="20"/>
		<circle class="st0" cx="354.2" cy="153.2" r="20"/>
		<circle class="st0" cx="167.2" cy="275.2" r="20"/>
		<circle class="st0" cx="301.2" cy="447.2" r="20"/>
		<circle class="st0" cx="54.2" cy="484.2" r="20"/>
		<circle class="st0" cx="285.2" cy="20.2" r="20"/>
		<circle class="st0" cx="20.2" cy="354.2" r="20"/>
		<line class="st1" x1="93.7" y1="69.7" x2="20.2" y2="354.2"/>
		<line class="st1" x1="93.7" y1="69.7" x2="166.7" y2="274.7"/>
		<line class="st1" x1="284.7" y1="19.7" x2="166.7" y2="274.7"/>
		<line class="st1" x1="284.7" y1="19.7" x2="353.7" y2="152.7"/>
		<line class="st1" x1="353.7" y1="152.7" x2="488.7" y2="323.7"/>
		<line class="st1" x1="488.7" y1="323.7" x2="300.7" y2="447.7"/>
		<line class="st1" x1="300.7" y1="447.7" x2="53.7" y2="484.7"/>
		<line class="st1" x1="19.7" y1="354.7" x2="53.7" y2="484.7"/>
		<line class="st1" x1="284.7" y1="19.7" x2="93.7" y2="69.7"/>
		<line class="st1" x1="284.7" y1="15.7" x2="17.9" y2="352.2"/>
		<line class="st1" x1="167.7" y1="274.7" x2="19.7" y2="354.7"/>
		<line class="st1" x1="93.7" y1="69.7" x2="54.1" y2="485.2"/>
		<line class="st1" x1="284.7" y1="15.7" x2="54.7" y2="483.7"/>
		<line class="st1" x1="167.7" y1="274.7" x2="53.1" y2="489.2"/>
		<line class="st1" x1="353.7" y1="152.7" x2="51.8" y2="486.5"/>
		<line class="st1" x1="488.7" y1="323.7" x2="53.2" y2="487.1"/>
		<line class="st1" x1="284.7" y1="15.7" x2="300.7" y2="447.7"/>
		<line class="st1" x1="353.7" y1="152.7" x2="301.7" y2="446.7"/>
		<line class="st1" x1="166.7" y1="274.7" x2="299" y2="450.8"/>
		<line class="st1" x1="488.7" y1="323.7" x2="166.7" y2="275.7"/>
		<line class="st1" x1="487.7" y1="323.3" x2="93.7" y2="69.7"/>
	</g>
</g>
</svg>
